# xmcd
#
# Track frame offsets:
# 150
# 15703
# 30421
# 49765
# 66637
# 84992
# 105816
# 123569
# 143564
# 172228
# 195622
# 209770
#
# Disc length: 3071 seconds
#
#
# Revision: 1
# Processed by: cddbd v1.5.2PL0 Copyright (c) Steve Scherf et al.
# Submitted via: FreeRIP 2.944 
#
DISCID=a70bfd0c
DTITLE=Δεληβοριάς, Φοίβος - Έξω
DYEAR=1900
DGENRE=
TTITLE0=Το Πινέλο
TTITLE1=Αδιάκοπα
TTITLE2=Η Πέρα Χώρα
TTITLE3=Ο Προορισμός
TTITLE4=Το Σουξέ Της Έλσας
TTITLE5=Λέξεις
TTITLE6=Και Του Χρόνου
TTITLE7=Τσιτσάνης 1983 (Την Αντάμωσα Ένα Βράδυ)
TTITLE8=Δισκογραφική
TTITLE9=Κ-13
TTITLE10=Ο.Κ.
TTITLE11=Το Καλοκαίρι Θα'ρθει
EXTD=
EXTT0=
EXTT1=
EXTT2=
EXTT3=
EXTT4=
EXTT5=
EXTT6=
EXTT7=
EXTT8=
EXTT9=
EXTT10=
EXTT11=
PLAYORDER=
